<svg width="35" height="34" viewBox="0 0 35 34" fill="none" xmlns="http://www.w3.org/2000/svg">
<circle cx="17.7407" cy="17" r="17" fill="#5754CE"/>
<g clip-path="url(#clip0_31_12)">
<path d="M18 3C25.735 3 32 9.265 32 17C31.9993 19.9334 31.0786 22.7926 29.3677 25.1753C27.6568 27.5581 25.2418 29.3443 22.4625 30.2825C21.7625 30.4225 21.5 29.985 21.5 29.6175C21.5 29.145 21.5175 27.64 21.5175 25.7675C21.5175 24.455 21.08 23.615 20.5725 23.1775C23.6875 22.8275 26.96 21.6375 26.96 16.265C26.96 14.725 26.4175 13.4825 25.525 12.5025C25.665 12.1525 26.155 10.7175 25.385 8.7925C25.385 8.7925 24.2125 8.4075 21.535 10.2275C20.415 9.9125 19.225 9.755 18.035 9.755C16.845 9.755 15.655 9.9125 14.535 10.2275C11.8575 8.425 10.685 8.7925 10.685 8.7925C9.915 10.7175 10.405 12.1525 10.545 12.5025C9.6525 13.4825 9.11 14.7425 9.11 16.265C9.11 21.62 12.365 22.8275 15.48 23.1775C15.0775 23.5275 14.71 24.14 14.5875 25.05C13.7825 25.4175 11.77 26.0125 10.51 23.895C10.2475 23.475 9.46 22.4425 8.3575 22.46C7.185 22.4775 7.885 23.125 8.375 23.3875C8.97 23.72 9.6525 24.9625 9.81 25.365C10.09 26.1525 11 27.6575 14.5175 27.01C14.5175 28.1825 14.535 29.285 14.535 29.6175C14.535 29.985 14.2725 30.405 13.5725 30.2825C10.7841 29.3544 8.35879 27.5718 6.64056 25.1876C4.92233 22.8035 3.99846 19.9388 4 17C4 9.265 10.265 3 18 3Z" fill="black"/>
</g>
<defs>
<clipPath id="clip0_31_12">
<rect width="28" height="28" fill="white" transform="translate(4 3)"/>
</clipPath>
</defs>
</svg>
