{
  "accessors": [
    {
      "bufferView": 2,
      "componentType": 5126,
      "count": 65532,
      "max": [
        1.8092799186706543,
        0.9901142120361328,
        0.8212870359420776
      ],
      "min": [
        0.0,
        0.0,
        0.00019299983978271484
      ],
      "type": "VEC3"
    },
    {
      "bufferView": 2,
      "byteOffset": 786384,
      "componentType": 5126,
      "count": 65532,
      "max": [
        0.9999825358390808,
        0.9999788999557495,
        0.9999933838844299
      ],
      "min": [
        -1.0,
        -0.9999812245368958,
        -0.9999991059303284
      ],
      "type": "VEC3"
    },
    {
      "bufferView": 1,
      "componentType": 5126,
      "count": 65532,
      "max": [
        0.9355059862136841,
        0.993740975856781
      ],
      "min": [
        0.0038660001009702682,
        0.004705000203102827
      ],
      "type": "VEC2"
    },
    {
      "bufferView": 0,
      "componentType": 5125,
      "count": 366423,
      "type": "SCALAR"
    },
    {
      "bufferView": 2,
      "byteOffset": 1572768,
      "componentType": 5126,
      "count": 35554,
      "max": [
        1.8102779388427734,
        0.9885768890380859,
        0.8212870359420776
      ],
      "min": [
        0.003533989191055298,
        0.2551536560058594,
        0.0
      ],
      "type": "VEC3"
    },
    {
      "bufferView": 2,
      "byteOffset": 1999416,
      "componentType": 5126,
      "count": 35554,
      "max": [
        0.9999825358390808,
        0.9999788999557495,
        0.9999933838844299
      ],
      "min": [
        -0.9999982118606567,
        -0.6947670578956604,
        -0.9999991059303284
      ],
      "type": "VEC3"
    },
    {
      "bufferView": 1,
      "byteOffset": 524256,
      "componentType": 5126,
      "count": 35554,
      "max": [
        0.9961169958114624,
        0.991113007068634
      ],
      "min": [
        0.004656999837607145,
        0.0024790000170469284
      ],
      "type": "VEC2"
    },
    {
      "bufferView": 0,
      "byteOffset": 1465692,
      "componentType": 5125,
      "count": 173577,
      "type": "SCALAR"
    }
  ],
  "asset": {
    "extras": {
      "author": "The British Museum (https://sketchfab.com/britishmuseum)",
      "license": "CC-BY-NC-SA-4.0 (http://creativecommons.org/licenses/by-nc-sa/4.0/)",
      "source": "https://sketchfab.com/3d-models/a-pawn-from-the-lewis-chessmen-77ac9a85f0af45a7b0c1a4107183e441",
      "title": "A pawn from the Lewis Chessmen"
    },
    "generator": "Sketchfab-12.64.0",
    "version": "2.0"
  },
  "bufferViews": [
    {
      "buffer": 0,
      "byteLength": 2160000,
      "name": "floatBufferViews",
      "target": 34963
    },
    {
      "buffer": 0,
      "byteLength": 808688,
      "byteOffset": 2160000,
      "byteStride": 8,
      "name": "floatBufferViews",
      "target": 34962
    },
    {
      "buffer": 0,
      "byteLength": 2426064,
      "byteOffset": 2968688,
      "byteStride": 12,
      "name": "floatBufferViews",
      "target": 34962
    }
  ],
  "buffers": [
    {
      "byteLength": 5394752,
      "uri": "scene.bin"
    }
  ],
  "extensionsUsed": [
    "KHR_materials_unlit"
  ],
  "images": [
    {
      "uri": "textures/material_0_baseColor.jpeg"
    }
  ],
  "materials": [
    {
      "doubleSided": true,
      "extensions": {
        "KHR_materials_unlit": {}
      },
      "name": "material_0",
      "pbrMetallicRoughness": {
        "baseColorTexture": {
          "index": 0
        },
        "metallicFactor": 0.0
      }
    }
  ],
  "meshes": [
    {
      "name": "Object_0",
      "primitives": [
        {
          "attributes": {
            "NORMAL": 1,
            "POSITION": 0,
            "TEXCOORD_0": 2
          },
          "indices": 3,
          "material": 0,
          "mode": 4
        }
      ]
    },
    {
      "name": "Object_1",
      "primitives": [
        {
          "attributes": {
            "NORMAL": 5,
            "POSITION": 4,
            "TEXCOORD_0": 6
          },
          "indices": 7,
          "material": 0,
          "mode": 4
        }
      ]
    }
  ],
  "nodes": [
    {
      "children": [
        1
      ],
      "matrix": [
        1.887379141862766e-15,
        1.0,
        -4.440892098500626e-16,
        0.0,
        0.8792737722396851,
        -1.1604754247429452e-15,
        0.4763166904449463,
        0.0,
        0.4763166904449463,
        -9.149850272472537e-16,
        -0.8792737722396851,
        0.0,
        14.230273246765137,
        -1.577995657920842,
        21.2434024810791,
        1.0
      ],
      "name": "Sketchfab_model"
    },
    {
      "children": [
        2,
        3
      ],
      "matrix": [
        1.0,
        0.0,
        0.0,
        0.0,
        0.0,
        1.0,
        0.0,
        0.0,
        0.0,
        0.0,
        1.0,
        0.0,
        0.4692240059375763,
        -15.005819320678711,
        -0.6142770051956177,
        1.0
      ],
      "name": "pawn131.obj.cleaner.materialmerger.gles"
    },
    {
      "mesh": 0,
      "name": "Object_2"
    },
    {
      "mesh": 1,
      "name": "Object_3"
    }
  ],
  "samplers": [
    {
      "magFilter": 9729,
      "minFilter": 9987,
      "wrapS": 10497,
      "wrapT": 10497
    }
  ],
  "scene": 0,
  "scenes": [
    {
      "name": "Sketchfab_Scene",
      "nodes": [
        0
      ]
    }
  ],
  "textures": [
    {
      "sampler": 0,
      "source": 0
    }
  ]
}
