{
  "accessors": [
    {
      "bufferView": 2,
      "componentType": 5126,
      "count": 4297,
      "max": [
        0.15954376757144928,
        0.04316456615924835,
        0.05944777652621269
      ],
      "min": [
        -0.15954375267028809,
        0.0025400007143616676,
        -0.05626125633716583
      ],
      "type": "VEC3"
    },
    {
      "bufferView": 2,
      "byteOffset": 51564,
      "componentType": 5126,
      "count": 4297,
      "max": [
        1.0,
        0.9952363967895508,
        0.9916004538536072
      ],
      "min": [
        -1.0,
        -1.0,
        -0.991604208946228
      ],
      "type": "VEC3"
    },
    {
      "bufferView": 1,
      "componentType": 5126,
      "count": 4297,
      "max": [
        0.875,
        1.0089918375015259
      ],
      "min": [
        0.12608987092971802,
        0.0
      ],
      "type": "VEC2"
    },
    {
      "bufferView": 0,
      "componentType": 5125,
      "count": 10332,
      "type": "SCALAR"
    },
    {
      "bufferView": 2,
      "byteOffset": 103128,
      "componentType": 5126,
      "count": 144,
      "max": [
        0.15160535275936127,
        0.038219135254621506,
        0.013406997546553612
      ],
      "min": [
        0.09148372709751129,
        0.027620796114206314,
        -0.004224912263453007
      ],
      "type": "VEC3"
    },
    {
      "bufferView": 2,
      "byteOffset": 104856,
      "componentType": 5126,
      "count": 144,
      "max": [
        0.9334388971328735,
        0.9952363967895508,
        0.9668071269989014
      ],
      "min": [
        -0.9334388971328735,
        -0.9916720986366272,
        -0.991604208946228
      ],
      "type": "VEC3"
    },
    {
      "bufferView": 1,
      "byteOffset": 34376,
      "componentType": 5126,
      "count": 144,
      "max": [
        0.875,
        1.0
      ],
      "min": [
        0.12608987092971802,
        0.0
      ],
      "type": "VEC2"
    },
    {
      "bufferView": 0,
      "byteOffset": 41328,
      "componentType": 5125,
      "count": 360,
      "type": "SCALAR"
    },
    {
      "bufferView": 2,
      "byteOffset": 106584,
      "componentType": 5126,
      "count": 140,
      "max": [
        0.07704417407512665,
        0.03323342651128769,
        0.051479440182447433
      ],
      "min": [
        -0.1265256255865097,
        0.022654665634036064,
        0.03384752944111824
      ],
      "type": "VEC3"
    },
    {
      "bufferView": 2,
      "byteOffset": 108264,
      "componentType": 5126,
      "count": 140,
      "max": [
        0.9334428310394287,
        0.9946649074554443,
        0.9668416976928711
      ],
      "min": [
        -0.9334388971328735,
        -0.9916720986366272,
        -0.991604208946228
      ],
      "type": "VEC3"
    },
    {
      "bufferView": 1,
      "byteOffset": 35528,
      "componentType": 5126,
      "count": 140,
      "max": [
        0.875,
        1.0
      ],
      "min": [
        0.12608987092971802,
        0.0
      ],
      "type": "VEC2"
    },
    {
      "bufferView": 0,
      "byteOffset": 42768,
      "componentType": 5125,
      "count": 318,
      "type": "SCALAR"
    },
    {
      "bufferView": 2,
      "byteOffset": 109944,
      "componentType": 5126,
      "count": 212,
      "max": [
        0.15160538256168365,
        0.03571641445159912,
        0.051479440182447433
      ],
      "min": [
        -0.10159651190042496,
        0.022654663771390915,
        0.014811309985816479
      ],
      "type": "VEC3"
    },
    {
      "bufferView": 2,
      "byteOffset": 112488,
      "componentType": 5126,
      "count": 212,
      "max": [
        0.9334428310394287,
        0.9946649074554443,
        0.9668416976928711
      ],
      "min": [
        -0.9334388971328735,
        -0.9916720986366272,
        -0.991604208946228
      ],
      "type": "VEC3"
    },
    {
      "bufferView": 1,
      "byteOffset": 36648,
      "componentType": 5126,
      "count": 212,
      "max": [
        0.875,
        1.0
      ],
      "min": [
        0.12608987092971802,
        0.0
      ],
      "type": "VEC2"
    },
    {
      "bufferView": 0,
      "byteOffset": 44040,
      "componentType": 5125,
      "count": 498,
      "type": "SCALAR"
    },
    {
      "bufferView": 2,
      "byteOffset": 115032,
      "componentType": 5126,
      "count": 144,
      "max": [
        0.15160535275936127,
        0.04316472262144089,
        -0.005630469880998135
      ],
      "min": [
        0.09643854200839996,
        0.030103780329227448,
        -0.04229240119457245
      ],
      "type": "VEC3"
    },
    {
      "bufferView": 2,
      "byteOffset": 116760,
      "componentType": 5126,
      "count": 144,
      "max": [
        0.9334344267845154,
        0.9949581027030945,
        0.9668071269989014
      ],
      "min": [
        -0.9334388971328735,
        -0.9916720986366272,
        -0.991604208946228
      ],
      "type": "VEC3"
    },
    {
      "bufferView": 1,
      "byteOffset": 38344,
      "componentType": 5126,
      "count": 144,
      "max": [
        0.875,
        1.0
      ],
      "min": [
        0.12608987092971802,
        0.0
      ],
      "type": "VEC2"
    },
    {
      "bufferView": 0,
      "byteOffset": 46032,
      "componentType": 5125,
      "count": 360,
      "type": "SCALAR"
    },
    {
      "bufferView": 2,
      "byteOffset": 118488,
      "componentType": 5126,
      "count": 144,
      "max": [
        0.1516062617301941,
        0.04316488653421402,
        -0.0246591754257679
      ],
      "min": [
        -0.1516062319278717,
        0.03258579596877098,
        -0.04229364171624184
      ],
      "type": "VEC3"
    },
    {
      "bufferView": 2,
      "byteOffset": 120216,
      "componentType": 5126,
      "count": 144,
      "max": [
        0.9334344267845154,
        0.9936584234237671,
        0.9668071269989014
      ],
      "min": [
        -0.9334344267845154,
        -0.9916720986366272,
        -0.991604208946228
      ],
      "type": "VEC3"
    },
    {
      "bufferView": 1,
      "byteOffset": 39496,
      "componentType": 5126,
      "count": 144,
      "max": [
        0.875,
        1.0
      ],
      "min": [
        0.12608987092971802,
        0.0
      ],
      "type": "VEC2"
    },
    {
      "bufferView": 0,
      "byteOffset": 47472,
      "componentType": 5125,
      "count": 360,
      "type": "SCALAR"
    },
    {
      "bufferView": 2,
      "byteOffset": 121944,
      "componentType": 5126,
      "count": 136,
      "max": [
        0.13731874525547028,
        0.0025400035083293915,
        0.045243795961141586
      ],
      "min": [
        -0.13731876015663147,
        -3.725290298461914e-09,
        -0.04524371773004532
      ],
      "type": "VEC3"
    },
    {
      "bufferView": 2,
      "byteOffset": 123576,
      "componentType": 5126,
      "count": 136,
      "max": [
        1.0,
        2.933297082563513e-06,
        1.0
      ],
      "min": [
        -1.0,
        -1.0,
        -1.0
      ],
      "type": "VEC3"
    },
    {
      "bufferView": 1,
      "byteOffset": 40648,
      "componentType": 5126,
      "count": 136,
      "max": [
        0.625,
        1.0
      ],
      "min": [
        0.125,
        0.0
      ],
      "type": "VEC2"
    },
    {
      "bufferView": 0,
      "byteOffset": 48912,
      "componentType": 5125,
      "count": 204,
      "type": "SCALAR"
    }
  ],
  "asset": {
    "extras": {
      "author": "sleepyjoshua (https://sketchfab.com/sleepyjoshua)",
      "license": "CC-BY-4.0 (http://creativecommons.org/licenses/by/4.0/)",
      "source": "https://sketchfab.com/3d-models/lowpoly-65-mechanical-keyboard-0cdd429eb08549ac954352169de5c8f8",
      "title": "Lowpoly 65% Mechanical Keyboard"
    },
    "generator": "Sketchfab-12.68.0",
    "version": "2.0"
  },
  "bufferViews": [
    {
      "buffer": 0,
      "byteLength": 49728,
      "name": "floatBufferViews",
      "target": 34963
    },
    {
      "buffer": 0,
      "byteLength": 41736,
      "byteOffset": 49728,
      "byteStride": 8,
      "name": "floatBufferViews",
      "target": 34962
    },
    {
      "buffer": 0,
      "byteLength": 125208,
      "byteOffset": 91464,
      "byteStride": 12,
      "name": "floatBufferViews",
      "target": 34962
    }
  ],
  "buffers": [
    {
      "byteLength": 216672,
      "uri": "scene.bin"
    }
  ],
  "materials": [
    {
      "doubleSided": true,
      "name": "NovelKeys",
      "pbrMetallicRoughness": {
        "baseColorFactor": [
          0.8,
          0.8,
          0.8,
          1.0
        ],
        "metallicFactor": 0.0,
        "roughnessFactor": 0.5
      }
    },
    {
      "doubleSided": true,
      "name": "Lime",
      "pbrMetallicRoughness": {
        "baseColorFactor": [
          0.246933,
          0.8,
          0.284386,
          1.0
        ],
        "metallicFactor": 0.0,
        "roughnessFactor": 0.5
      }
    },
    {
      "doubleSided": true,
      "name": "Grape",
      "pbrMetallicRoughness": {
        "baseColorFactor": [
          0.423682,
          0.194238,
          0.581464,
          1.0
        ],
        "metallicFactor": 0.0,
        "roughnessFactor": 0.5
      }
    },
    {
      "doubleSided": true,
      "name": "Blueberry",
      "pbrMetallicRoughness": {
        "baseColorFactor": [
          0.187849,
          0.546453,
          0.8,
          1.0
        ],
        "metallicFactor": 0.0,
        "roughnessFactor": 0.5
      }
    },
    {
      "doubleSided": true,
      "name": "Lemon",
      "pbrMetallicRoughness": {
        "baseColorFactor": [
          0.8,
          0.764675,
          0.137656,
          1.0
        ],
        "metallicFactor": 0.0,
        "roughnessFactor": 0.5
      }
    },
    {
      "doubleSided": true,
      "name": "Strawberry",
      "pbrMetallicRoughness": {
        "baseColorFactor": [
          0.615177,
          0.214554,
          0.312286,
          1.0
        ],
        "metallicFactor": 0.0,
        "roughnessFactor": 0.5
      }
    },
    {
      "doubleSided": true,
      "name": "Material",
      "pbrMetallicRoughness": {
        "baseColorFactor": [
          0.221471,
          0.574098,
          0.626663,
          1.0
        ],
        "metallicFactor": 0.0,
        "roughnessFactor": 0.5
      }
    }
  ],
  "meshes": [
    {
      "name": "Object_0",
      "primitives": [
        {
          "attributes": {
            "NORMAL": 1,
            "POSITION": 0,
            "TEXCOORD_0": 2
          },
          "indices": 3,
          "material": 0,
          "mode": 4
        }
      ]
    },
    {
      "name": "Object_1",
      "primitives": [
        {
          "attributes": {
            "NORMAL": 5,
            "POSITION": 4,
            "TEXCOORD_0": 6
          },
          "indices": 7,
          "material": 1,
          "mode": 4
        }
      ]
    },
    {
      "name": "Object_2",
      "primitives": [
        {
          "attributes": {
            "NORMAL": 9,
            "POSITION": 8,
            "TEXCOORD_0": 10
          },
          "indices": 11,
          "material": 2,
          "mode": 4
        }
      ]
    },
    {
      "name": "Object_3",
      "primitives": [
        {
          "attributes": {
            "NORMAL": 13,
            "POSITION": 12,
            "TEXCOORD_0": 14
          },
          "indices": 15,
          "material": 3,
          "mode": 4
        }
      ]
    },
    {
      "name": "Object_4",
      "primitives": [
        {
          "attributes": {
            "NORMAL": 17,
            "POSITION": 16,
            "TEXCOORD_0": 18
          },
          "indices": 19,
          "material": 4,
          "mode": 4
        }
      ]
    },
    {
      "name": "Object_5",
      "primitives": [
        {
          "attributes": {
            "NORMAL": 21,
            "POSITION": 20,
            "TEXCOORD_0": 22
          },
          "indices": 23,
          "material": 5,
          "mode": 4
        }
      ]
    },
    {
      "name": "Object_6",
      "primitives": [
        {
          "attributes": {
            "NORMAL": 25,
            "POSITION": 24,
            "TEXCOORD_0": 26
          },
          "indices": 27,
          "material": 6,
          "mode": 4
        }
      ]
    }
  ],
  "nodes": [
    {
      "children": [
        1
      ],
      "matrix": [
        1.0,
        0.0,
        0.0,
        0.0,
        0.0,
        2.220446049250313e-16,
        -1.0,
        0.0,
        0.0,
        1.0,
        2.220446049250313e-16,
        0.0,
        0.0,
        0.0,
        0.0,
        1.0
      ],
      "name": "Sketchfab_model"
    },
    {
      "children": [
        2
      ],
      "name": "root"
    },
    {
      "children": [
        3
      ],
      "matrix": [
        1.0,
        0.0,
        0.0,
        0.0,
        0.0,
        2.220446049250313e-16,
        1.0,
        0.0,
        0.0,
        -1.0,
        2.220446049250313e-16,
        0.0,
        0.0,
        0.0,
        0.0,
        1.0
      ],
      "name": "GLTF_SceneRootNode"
    },
    {
      "children": [
        4,
        5,
        6,
        7,
        8,
        9,
        10
      ],
      "name": "NK.65_2"
    },
    {
      "mesh": 0,
      "name": "Object_4"
    },
    {
      "mesh": 1,
      "name": "Object_5"
    },
    {
      "mesh": 2,
      "name": "Object_6"
    },
    {
      "mesh": 3,
      "name": "Object_7"
    },
    {
      "mesh": 4,
      "name": "Object_8"
    },
    {
      "mesh": 5,
      "name": "Object_9"
    },
    {
      "mesh": 6,
      "name": "Object_10"
    }
  ],
  "scene": 0,
  "scenes": [
    {
      "name": "Sketchfab_Scene",
      "nodes": [
        0
      ]
    }
  ]
}
