{
  "accessors": [
    {
      "bufferView": 2,
      "componentType": 5126,
      "count": 12209,
      "max": [
        -132.9839630126953,
        314.33062744140625,
        285.5964660644531
      ],
      "min": [
        -524.125,
        -93.692626953125,
        -66.8306655883789
      ],
      "type": "VEC3"
    },
    {
      "bufferView": 2,
      "byteOffset": 146508,
      "componentType": 5126,
      "count": 12209,
      "max": [
        0.999528169631958,
        0.9999495148658752,
        0.9992831945419312
      ],
      "min": [
        -0.9994713068008423,
        -0.9982250928878784,
        -0.9997556209564209
      ],
      "type": "VEC3"
    },
    {
      "bufferView": 1,
      "componentType": 5126,
      "count": 12209,
      "max": [
        1.0,
        1.0
      ],
      "min": [
        0.0,
        0.0
      ],
      "type": "VEC2"
    },
    {
      "bufferView": 0,
      "componentType": 5125,
      "count": 70224,
      "type": "SCALAR"
    },
    {
      "bufferView": 2,
      "byteOffset": 293016,
      "componentType": 5126,
      "count": 24096,
      "max": [
        -96.92903137207031,
        327.2742919921875,
        416.11102294921875
      ],
      "min": [
        -598.1567993164063,
        -192.4584503173828,
        -293.7009582519531
      ],
      "type": "VEC3"
    },
    {
      "bufferView": 2,
      "byteOffset": 582168,
      "componentType": 5126,
      "count": 24096,
      "max": [
        0.9997471570968628,
        0.9999802112579346,
        0.9999992847442627
      ],
      "min": [
        -0.9999589920043945,
        -0.9998511672019958,
        -0.999991238117218
      ],
      "type": "VEC3"
    },
    {
      "bufferView": 1,
      "byteOffset": 97672,
      "componentType": 5126,
      "count": 24096,
      "max": [
        1.0,
        1.0
      ],
      "min": [
        0.0,
        0.0
      ],
      "type": "VEC2"
    },
    {
      "bufferView": 0,
      "byteOffset": 280896,
      "componentType": 5125,
      "count": 141372,
      "type": "SCALAR"
    }
  ],
  "asset": {
    "extras": {
      "author": "tjabugg (https://sketchfab.com/tjabugg)",
      "license": "CC-BY-4.0 (http://creativecommons.org/licenses/by/4.0/)",
      "source": "https://sketchfab.com/3d-models/abstract-cosmic-dust-shape-1-c22428eb9f87463f8ee902827cf6f078",
      "title": "abstract cosmic dust shape 1"
    },
    "generator": "Sketchfab-12.68.0",
    "version": "2.0"
  },
  "bufferViews": [
    {
      "buffer": 0,
      "byteLength": 846384,
      "name": "floatBufferViews",
      "target": 34963
    },
    {
      "buffer": 0,
      "byteLength": 290440,
      "byteOffset": 846384,
      "byteStride": 8,
      "name": "floatBufferViews",
      "target": 34962
    },
    {
      "buffer": 0,
      "byteLength": 871320,
      "byteOffset": 1136824,
      "byteStride": 12,
      "name": "floatBufferViews",
      "target": 34962
    }
  ],
  "buffers": [
    {
      "byteLength": 2008144,
      "uri": "scene.bin"
    }
  ],
  "materials": [
    {
      "doubleSided": true,
      "name": "default",
      "pbrMetallicRoughness": {
        "metallicFactor": 0.0,
        "roughnessFactor": 0.6
      }
    }
  ],
  "meshes": [
    {
      "name": "Object_0",
      "primitives": [
        {
          "attributes": {
            "NORMAL": 1,
            "POSITION": 0,
            "TEXCOORD_0": 2
          },
          "indices": 3,
          "material": 0,
          "mode": 4
        }
      ]
    },
    {
      "name": "Object_1",
      "primitives": [
        {
          "attributes": {
            "NORMAL": 5,
            "POSITION": 4,
            "TEXCOORD_0": 6
          },
          "indices": 7,
          "material": 0,
          "mode": 4
        }
      ]
    }
  ],
  "nodes": [
    {
      "children": [
        1
      ],
      "matrix": [
        1.0,
        0.0,
        0.0,
        0.0,
        0.0,
        2.220446049250313e-16,
        -1.0,
        0.0,
        0.0,
        1.0,
        2.220446049250313e-16,
        0.0,
        0.0,
        0.0,
        0.0,
        1.0
      ],
      "name": "Sketchfab_model"
    },
    {
      "children": [
        2,
        3
      ],
      "name": "ABSTRACT_GREY2.obj.cleaner.materialmerger.gles"
    },
    {
      "mesh": 0,
      "name": "Object_2"
    },
    {
      "mesh": 1,
      "name": "Object_3"
    }
  ],
  "scene": 0,
  "scenes": [
    {
      "name": "Sketchfab_Scene",
      "nodes": [
        0
      ]
    }
  ]
}
